PathFileType	4	(X/Y/Z)	C:/Users/beibeiliu/ov580/test_trc\sequence.12_training_dense_left.trc
DataRate	CameraRate	NumFrames	NumMarkers	Units	OrigDataRate	OrigDataStartFrame	OrigNumFrames
120	120	17	19	mm	120	244	324
Frame#	Time	ThumbCMC			ThumbMCP			ThumbIP			ThumbTip			IndexMCP			IndexPIP			IndexTip			MiddleMCP			MiddlePIP			MiddleTip			RingMCP			RingPIP			RingTip			PinkyMCP			PinkyPIP			PinkyTip			BackHand1			BackHand2			BackHand3	
		X0	Y0	Z0	X1	Y1	Z1	X2	Y2	Z2	X3	Y3	Z3	X4	Y4	Z4	X5	Y5	Z5	X6	Y6	Z6	X7	Y7	Z7	X8	Y8	Z8	X9	Y9	Z9	X10	Y10	Z10	X11	Y11	Z11	X12	Y12	Z12	X13	Y13	Z13	X14	Y14	Z14	X15	Y15	Z15	X16	Y16	Z16	X17	Y17	Z17	X18	Y18	Z18	
243	2.025	-162.873	9.199	17.7335	-143.965	-7.91015	10.1748	-125.851	-16.3821	-0.246757	-108.079	-22.866	-4.62225	-154.88	19.3978	-48.5105	-145.317	18.8424	-68.1709	-131.861	17.6723	-88.2133	-179.451	20.0249	-58.8134	-178.079	22.213	-82.5583	-177.171	19.9579	-107.89	-201.578	9.65257	-52.3652	-197.222	12.4228	-75.2252	-198.732	11.2734	-101.644	-220.066	-4.23793	-48.9579	-224.613	-9.67059	-64.6235	-228.044	-15.4087	-81.7086	-202.762	17.5985	-17.1219	-209.724	23.8906	9.02335	-187.334	27.7796	-0.305154	
244	2.03333	-161.031	7.63112	16.6824	-141.256	-7.24915	12.4182	-124.925	-15.4431	2.14413	-103.749	-22.769	-5.55157	-152.732	18.167	-44.9673	-143.662	18.3658	-66.014	-128.012	15.0749	-85.0994	-177.375	20.3729	-57.5373	-177.852	19.8552	-81.1686	-174.599	18.0435	-106.673	-196.907	11.061	-53.0855	-195.515	11.6805	-79.4145	-198.078	10.1876	-99.9512	-218.133	-3.69135	-44.9628	-223.535	-9.19953	-60.5884	-227.612	-13.8964	-80.1511	-205.55	16.9898	-13.0184	-208.945	24.0748	8.09332	-179.821	27.155	4.38308	
245	2.04167	-158.743	9.755	20.7215	-135.868	-7.15138	8.71454	-121.627	-14.1892	2.33172	-106.74	-22.2064	-5.97983	-151.095	18.6049	-47.3405	-140.368	17.0495	-67.5972	-127.051	13.7132	-86.762	-175.303	19.3233	-54.0045	-175.382	19.3585	-80.2732	-173.652	15.9486	-106.77	-194.326	12.9295	-53.0837	-196.054	11.6794	-78.0294	-196.558	9.72069	-96.2995	-218.39	-3.04258	-42.2353	-219.805	-7.11768	-60.4905	-226.148	-11.0928	-79.1138	-201.804	18.6674	-14.6948	-206.668	23.8283	10.8054	-178.46	28.6451	4.05959	
246	2.05	-154.228	9.28787	19.284	-135.683	-5.8717	5.74907	-122.905	-12.3627	-0.954331	-105.898	-19.1837	-9.82978	-149.698	19.7299	-48.8348	-138.641	18.1348	-69.5195	-131.301	11.3379	-89.5299	-174.405	21.1986	-55.7576	-171.807	19.955	-83.5907	-167.612	16.4265	-105.413	-198.356	13.4703	-51.215	-191.618	14.5111	-77.6592	-194.339	10.7723	-98.8554	-215.403	-0.382843	-45.658	-219.616	-5.13445	-64.1187	-223.67	-8.28783	-76.416	-197.751	21.1428	-13.8808	-205.248	23.951	14.415	-176.941	28.7219	1.10669	
247	2.05833	-155.412	9.62123	17.6239	-139.538	-5.73506	5.37092	-119.523	-9.74082	-7.66251	-105.863	-15.442	-13.822	-145.765	22.0494	-46.1484	-138.122	19.1282	-67.9487	-128.28	12.9538	-87.7342	-172.688	22.2058	-56.7301	-169.314	21.3299	-81.1413	-167.043	14.4089	-109.297	-195.544	15.7175	-51.1332	-195.597	15.1986	-77.4745	-193.166	12.4059	-99.8419	-215.908	2.51198	-42.9105	-217.892	-0.851092	-62.374	-222.392	-1.37966	-79.3941	-200.581	21.826	-13.2754	-203.562	25.8637	12.9314	-178.452	29.9087	6.00899	
248	2.06667	-150.872	9.44839	18.4965	-136.097	-3.50911	4.89919	-119.577	-8.31241	-6.99181	-102.858	-12.983	-18.9875	-148.635	21.464	-45.6217	-137.341	19.27	-68.5426	-131.326	12.3351	-90.3685	-174.347	22.615	-56.0608	-166.345	22.5007	-83.2029	-165.069	16.8651	-105.751	-192.526	16.7862	-50.8923	-190.193	17.0832	-75.8597	-189.384	15.2422	-95.4207	-213.826	4.98846	-41.1848	-218.188	1.85065	-60.6688	-226.085	1.45601	-80.3831	-195.475	22.3922	-11.8339	-199.889	27.4032	14.998	-175.179	27.6977	6.50791	
249	2.075	-147.522	9.22687	17.3339	-131.521	-2.55566	3.63417	-113.844	-6.42166	-12.1818	-99.7748	-11.3769	-18.9097	-144.538	22.4429	-48.7864	-136.665	19.0766	-67.1469	-127.577	11.6397	-88.2299	-170.259	22.4452	-54.2484	-168.104	22.1488	-80.3664	-166.956	16.1159	-107.332	-191.396	17.3297	-50.6435	-190.648	17.9784	-77.0651	-189.709	15.4774	-99.6787	-211.267	7.62364	-41.8511	-217.938	4.59909	-57.1569	-225.228	6.32191	-75.0484	-196.849	24.0944	-10.0241	-196.271	24.3996	16.6502	-169.39	29.3121	9.02334	
250	2.08333	-147.115	7.60918	16.8481	-125.501	-3.23658	3.50111	-110.197	-5.6981	-12.5629	-97.645	-9.31072	-19.7426	-136.875	21.2978	-45.2115	-134.005	18.6028	-67.9002	-123.517	9.92843	-93.5079	-166.009	23.4578	-58.4571	-160.717	21.9948	-81.0262	-162.222	18.3084	-105.019	-184.916	17.7712	-49.879	-190.26	18.1381	-74.3024	-187.653	17.9674	-94.5837	-205.937	8.64224	-39.1726	-214.357	6.60545	-56.3182	-221.63	10.5335	-70.8486	-187.029	24.4692	-7.5424	-190.616	24.2839	17.9435	-166.207	26.573	8.63085	
251	2.09167	-138.949	5.5443	21.3213	-121.95	-3.8536	6.4782	-106.063	-5.18618	-11.1882	-91.7119	-5.73476	-23.2219	-133.106	18.4986	-47.5841	-126.053	15.0707	-68.91	-117.957	8.49691	-88.6084	-157.994	21.5898	-56.4402	-157.795	21.5085	-79.0615	-155.952	19.7114	-104.595	-181.518	18.8427	-52.2351	-181.904	20.0104	-72.8246	-184.797	20.2861	-94.9571	-200.344	8.17678	-37.7683	-209.332	9.46655	-54.2452	-218.089	16.3611	-71.7439	-180.393	23.8556	-9.1441	-185.459	24.9477	18.7999	-162.177	27.0838	7.0701	
252	2.1	-138.226	3.61867	21.4188	-114.446	-0.911745	4.24618	-101.085	-2.79893	-8.78895	-85.8904	-4.47615	-19.7873	-128.756	15.139	-43.7002	-122.996	11.872	-70.5933	-114.364	7.43473	-91.4488	-155.492	19.9801	-57.3822	-151.398	20.2097	-77.8727	-149.821	21.0206	-107.186	-176.893	16.5576	-50.3556	-178.067	18.0349	-69.5073	-182.742	20.65	-90.7695	-201.621	8.08343	-38.4363	-204.906	10.17	-57.5009	-212.541	17.3746	-70.7766	-176.707	20.048	-6.63052	-180.46	23.6017	18.6559	-155.154	24.7801	8.00977	
253	2.10833	-131.528	1.58002	24.5744	-114.875	-2.42617	6.04338	-96.594	-1.10582	-8.42541	-81.1709	-1.83807	-17.8248	-128.734	12.9694	-47.8443	-118.958	10.1307	-65.1507	-109.306	7.61215	-86.7099	-151.395	17.094	-57.1949	-148.081	18.9734	-75.4539	-148.361	20.7008	-102.411	-175.963	14.4342	-52.431	-178.405	16.5984	-70.4638	-179.453	21.088	-93.3742	-197.423	7.01724	-37.6874	-203.141	9.09561	-55.7893	-211.415	17.1341	-65.0086	-174.835	19.5718	-9.66747	-178.528	22.1928	15.8306	-149.096	20.1188	7.02986	
254	2.11667	-131.706	2.02509	19.1461	-109.311	-1.59765	6.82238	-95.7623	-1.34383	-7.20624	-79.3234	-0.126648	-20.2954	-123.89	8.90915	-44.5775	-115.369	7.43535	-65.6805	-106.865	6.30594	-89.397	-151.918	14.084	-52.7571	-147.179	16.649	-75.7267	-145.321	21.6072	-104.786	-173.176	11.2344	-49.2785	-173.163	14.6179	-72.8063	-177.34	18.5443	-92.5315	-196.28	3.29315	-36.5527	-198.811	5.08441	-53.8951	-207.812	13.4837	-68.6385	-170.899	17.1472	-9.14184	-174.531	18.3666	16.7179	-147.963	18.4997	8.95943	
255	2.125	-132.584	0.533235	19.017	-111.723	-2.13001	7.79239	-94.653	-0.95484	-6.70994	-79.7771	0.478786	-19.9238	-124.68	7.01861	-44.4968	-117.225	5.80585	-68.1777	-110.129	6.2685	-86.4737	-146.416	10.587	-55.5794	-148.739	11.8636	-75.2677	-147.383	17.7228	-101.543	-169.864	7.50963	-49.4035	-175.297	9.8556	-72.8026	-174.207	15.1292	-93.1931	-194.31	0.591343	-40.2986	-201.399	-1.40193	-51.864	-209.829	5.94178	-69.4737	-170.734	13.7964	-9.24889	-174.132	17.6544	16.6513	-150.999	17.9203	8.53528	
256	2.13333	-131.763	0.761311	23.001	-110.925	-1.70041	8.17515	-98.7908	-0.565395	-9.61378	-78.8987	2.24804	-18.3573	-124.945	3.24778	-42.9257	-114.359	2.69958	-67.3648	-109.583	4.29324	-87.8701	-153.662	6.04431	-54.4884	-149.97	8.25992	-75.8201	-147.813	13.3633	-99.1402	-171.418	1.81102	-53.2026	-175.477	2.92721	-71.4228	-176.221	5.24153	-91.7875	-195.33	-5.41579	-38.1641	-197.433	-6.53538	-54.7985	-206.614	-3.19488	-68.8728	-173.652	10.3482	-10.2564	-176.217	17.3396	16.024	-153.588	16.9585	7.17838	
257	2.14167	-131.181	0.421982	23.4978	-111.058	-1.11125	7.14271	-100.455	-2.37549	-7.80296	-83.1902	-1.073	-18.914	-124.033	0.503158	-47.5641	-120.393	-2.10163	-68.7736	-113.672	-0.64556	-85.8403	-149.388	2.3259	-56.1902	-151.299	2.24862	-80.2179	-147.204	7.14018	-100.612	-173.782	-3.48463	-48.4799	-176.723	-4.81889	-69.7366	-174.583	-3.5599	-90.1161	-195.956	-11.5386	-37.5675	-200.986	-14.5128	-55.373	-210.971	-9.97227	-68.37	-174.072	7.21301	-11.548	-178.447	16.2816	15.7769	-153.249	13.4057	1.33132	
258	2.15	-134.347	-0.980066	21.6473	-116.642	-5.8545	10.0962	-95.746	-3.17733	-6.89087	-84.1041	-2.52286	-15.5602	-127.997	-5.38936	-46.6562	-122.232	-7.38975	-65.7771	-114.343	-6.01383	-84.1549	-155.628	-3.56382	-55.8618	-149.583	-4.32841	-79.169	-152.849	-0.830614	-102.963	-175.049	-9.22144	-51.7405	-175.443	-10.0457	-72.003	-180.376	-9.21059	-93.323	-196.549	-14.721	-39.5645	-205.563	-18.4132	-54.5153	-210.322	-17.5641	-66.2789	-177.98	6.12277	-9.13902	-176.511	14.4213	14.2944	-154.238	11.509	3.57873	
259	2.15833	-133.721	-3.07987	20.2705	-114.793	-6.72044	8.74757	-98.873	-5.50867	-9.27433	-82.5613	-5.45608	-13.2967	-131.288	-9.503	-45.984	-119.944	-12.5441	-61.9108	-113.318	-11.6418	-82.27	-155.854	-8.35107	-55.2171	-153.664	-10.5714	-73.9423	-151.181	-7.76548	-102.437	-179.306	-13.3807	-50.7733	-179.461	-15.6566	-67.5511	-179.232	-15.167	-91.8835	-196.503	-17.3478	-33.7023	-207.41	-22.6691	-49.5908	-212.029	-19.8055	-68.186	-181.15	5.12293	-7.59444	-178.758	11.8254	15.8327	-151.056	11.175	3.35511	
